G04 Layer: TopSolderMaskLayer*
G04 EasyEDA v6.5.21, 2022-10-26 23:24:46*
G04 7043a08dc792485ca80c43a16287fa54,0a3b9bc433cf4336b4e61a92af7c5883,10*
G04 Gerber Generator version 0.2*
G04 Scale: 100 percent, Rotated: No, Reflected: No *
G04 Dimensions in inches *
G04 leading zeros omitted , absolute positions ,3 integer and 6 decimal *
%FSLAX36Y36*%
%MOIN*%

%AMMACRO1*1,1,$1,$2,$3*1,1,$1,$4,$5*1,1,$1,0-$2,0-$3*1,1,$1,0-$4,0-$5*20,1,$1,$2,$3,$4,$5,0*20,1,$1,$4,$5,0-$2,0-$3,0*20,1,$1,0-$2,0-$3,0-$4,0-$5,0*20,1,$1,0-$4,0-$5,$2,$3,0*4,1,4,$2,$3,$4,$5,0-$2,0-$3,0-$4,0-$5,$2,$3,0*%
%ADD10MACRO1,0.004X-0.0157X0.0504X0.0157X0.0504*%
%ADD11C,0.0709*%
%ADD12MACRO1,0.004X-0.0292X-0.034X-0.0292X0.034*%
%ADD13MACRO1,0.004X0.0292X-0.034X0.0292X0.034*%
%ADD14MACRO1,0.004X0.0157X-0.0177X-0.0157X-0.0177*%
%ADD15MACRO1,0.004X0.0177X0.0157X0.0177X-0.0157*%
%ADD16MACRO1,0.004X-0.0157X0.0177X0.0157X0.0177*%
%ADD17MACRO1,0.004X-0.031X0.031X0.031X0.031*%
%ADD18C,0.0660*%
%ADD19MACRO1,0.004X0.031X-0.031X-0.031X-0.031*%
%ADD20R,0.0660X0.0660*%
%ADD21MACRO1,0.004X-0.0276X-0.0295X-0.0276X0.0295*%
%ADD22MACRO1,0.004X-0.017X0.0159X0.017X0.0159*%
%ADD23MACRO1,0.004X-0.017X-0.0159X0.017X-0.0159*%
%ADD24MACRO1,0.004X0.017X-0.0159X-0.017X-0.0159*%
%ADD25MACRO1,0.004X0.017X0.0159X-0.017X0.0159*%
%ADD26MACRO1,0.0039X0.0138X-0.0138X-0.0138X-0.0138*%
%ADD27MACRO1,0.0039X0.0157X-0.0079X-0.0157X-0.0079*%
%ADD28MACRO1,0.0039X-0.0079X-0.0157X-0.0079X0.0157*%
%ADD29MACRO1,0.0039X-0.0157X0.0079X0.0157X0.0079*%
%ADD30MACRO1,0.0039X0.0079X0.0157X0.0079X-0.0157*%
%ADD31MACRO1,0.0039X0.0285X0.0285X0.0285X-0.0285*%
%ADD32MACRO1,0.004X0.0437X-0.0209X0.0437X0.0209*%
%ADD33MACRO1,0.004X0.1024X0.1093X0.1024X-0.1093*%
%ADD34MACRO1,0.004X0.0354X0.0256X0.0354X-0.0256*%
%ADD35MACRO1,0.004X0.034X-0.0292X-0.034X-0.0292*%
%ADD36MACRO1,0.004X0.034X0.0292X-0.034X0.0292*%
%ADD37MACRO1,0.004X-0.0236X0.0226X0.0236X0.0226*%
%ADD38MACRO1,0.004X0.0246X-0.0138X-0.0246X-0.0138*%

%LPD*%
D10*
G01*
X-3155395Y195709D03*
G01*
X-3242014Y195709D03*
G01*
X-3328624Y195709D03*
G01*
X-3454604Y195709D03*
G01*
X-3155395Y-65709D03*
G01*
X-3242014Y-65709D03*
G01*
X-3328624Y-65709D03*
G01*
X-3454604Y-65709D03*
D11*
G01*
X-1975000Y613420D03*
G01*
X-1975000Y416570D03*
D12*
G01*
X-1357302Y775000D03*
D13*
G01*
X-1482697Y775000D03*
D14*
G01*
X-1472558Y-250000D03*
G01*
X-1417441Y-250000D03*
D15*
G01*
X-1710000Y-252558D03*
G01*
X-1710000Y-197441D03*
G01*
X-1845000Y-32558D03*
G01*
X-1845000Y22558D03*
D14*
G01*
X-2022558Y-345000D03*
G01*
X-1967441Y-345000D03*
G01*
X-2027558Y-610000D03*
G01*
X-1972441Y-610000D03*
D16*
G01*
X-1712441Y120000D03*
G01*
X-1767558Y120000D03*
D17*
G01*
X-2435000Y-1235000D03*
D18*
G01*
X-2335000Y-1235000D03*
G01*
X-2235000Y-1235000D03*
G01*
X-2135000Y-1235000D03*
D19*
G01*
X-1190000Y-1230000D03*
D18*
G01*
X-1290000Y-1230000D03*
G01*
X-1390000Y-1230000D03*
G01*
X-1490000Y-1230000D03*
D20*
G01*
X-1890000Y-1235000D03*
D18*
G01*
X-1990000Y-1235000D03*
D17*
G01*
X-2775000Y-1240000D03*
D18*
G01*
X-2675000Y-1240000D03*
G01*
X-2575000Y-1240000D03*
D21*
G01*
X-2809602Y-980000D03*
G01*
X-2510396Y-980000D03*
D22*
G01*
X-1845000Y-254655D03*
D23*
G01*
X-1845000Y-195344D03*
D24*
G01*
X-1565000Y-190344D03*
D25*
G01*
X-1565000Y-249655D03*
D22*
G01*
X-2130000Y-509655D03*
D23*
G01*
X-2130000Y-450344D03*
D26*
G01*
X-1390118Y-455748D03*
G01*
X-1779882Y-455749D03*
G01*
X-1779882Y-924251D03*
G01*
X-1390118Y-924251D03*
D27*
G01*
X-1392086Y-501023D03*
G01*
X-1392086Y-532519D03*
G01*
X-1392086Y-564015D03*
G01*
X-1392086Y-595512D03*
G01*
X-1392086Y-627007D03*
G01*
X-1392086Y-658504D03*
G01*
X-1392086Y-690000D03*
G01*
X-1392086Y-721495D03*
G01*
X-1392086Y-752992D03*
G01*
X-1392086Y-784487D03*
G01*
X-1392086Y-815984D03*
G01*
X-1392086Y-847480D03*
G01*
X-1392086Y-878976D03*
D28*
G01*
X-1427519Y-922283D03*
G01*
X-1459015Y-922283D03*
G01*
X-1490512Y-922283D03*
G01*
X-1522007Y-922283D03*
G01*
X-1553504Y-922283D03*
G01*
X-1585000Y-922283D03*
G01*
X-1616495Y-922283D03*
G01*
X-1647992Y-922283D03*
G01*
X-1679487Y-922283D03*
G01*
X-1710984Y-922283D03*
G01*
X-1742480Y-922283D03*
D29*
G01*
X-1777913Y-878976D03*
G01*
X-1777913Y-847480D03*
G01*
X-1777913Y-815984D03*
G01*
X-1777913Y-784487D03*
G01*
X-1777913Y-752992D03*
G01*
X-1777913Y-721495D03*
G01*
X-1777913Y-690000D03*
G01*
X-1777913Y-658504D03*
G01*
X-1777913Y-627007D03*
G01*
X-1777913Y-595512D03*
G01*
X-1777913Y-564015D03*
G01*
X-1777913Y-532519D03*
G01*
X-1777913Y-501023D03*
D30*
G01*
X-1742480Y-457716D03*
G01*
X-1710984Y-457716D03*
G01*
X-1679487Y-457716D03*
G01*
X-1647992Y-457716D03*
G01*
X-1616495Y-457716D03*
G01*
X-1585000Y-457716D03*
G01*
X-1553504Y-457716D03*
G01*
X-1522007Y-457716D03*
G01*
X-1490512Y-457716D03*
G01*
X-1459015Y-457716D03*
G01*
X-1427519Y-457716D03*
D31*
G01*
X-1585000Y-690000D03*
G01*
X-1585000Y-612244D03*
G01*
X-1662755Y-612244D03*
G01*
X-1662755Y-690000D03*
G01*
X-1662755Y-767755D03*
G01*
X-1585000Y-767755D03*
G01*
X-1507244Y-767755D03*
G01*
X-1507244Y-690000D03*
G01*
X-1507244Y-612244D03*
D32*
G01*
X-1531836Y620551D03*
G01*
X-1531836Y439448D03*
D33*
G01*
X-1268163Y530000D03*
D34*
G01*
X-2010000Y-422599D03*
G01*
X-2010000Y-537400D03*
D15*
G01*
X-1645000Y622441D03*
G01*
X-1645000Y677558D03*
G01*
X-1735000Y622441D03*
G01*
X-1735000Y677558D03*
D35*
G01*
X-1690000Y492697D03*
D36*
G01*
X-1690000Y367302D03*
D22*
G01*
X-3460000Y-379655D03*
D23*
G01*
X-3460000Y-320344D03*
D37*
G01*
X-3421694Y-205000D03*
G01*
X-3558305Y-205000D03*
D11*
G01*
X-3269989Y416570D03*
G01*
X-3269989Y613420D03*
D38*
G01*
X-3154369Y-452599D03*
G01*
X-3154369Y-527399D03*
G01*
X-3075630Y-489999D03*
M02*
