G04 Layer: BottomLayer*
G04 EasyEDA v6.5.21, 2022-10-26 23:24:46*
G04 7043a08dc792485ca80c43a16287fa54,0a3b9bc433cf4336b4e61a92af7c5883,10*
G04 Gerber Generator version 0.2*
G04 Scale: 100 percent, Rotated: No, Reflected: No *
G04 Dimensions in inches *
G04 leading zeros omitted , absolute positions ,3 integer and 6 decimal *
%FSLAX36Y36*%
%MOIN*%

%ADD10C,0.0100*%
%ADD11C,0.0098*%
%ADD12C,0.0669*%
%ADD13R,0.0620X0.0620*%
%ADD14C,0.0620*%
%ADD15C,0.0240*%
%ADD16C,0.0116*%

%LPD*%
G36*
X-4103039Y-1410980D02*
G01*
X-4104580Y-1410680D01*
X-4105860Y-1409820D01*
X-4106740Y-1408520D01*
X-4107040Y-1406980D01*
X-4107040Y-189000D01*
X-4106740Y-187460D01*
X-4105860Y-186180D01*
X-4104580Y-185300D01*
X-4103039Y-185000D01*
X-3006320Y-185000D01*
X-3005059Y-185200D01*
X-3003920Y-185799D01*
X-3003039Y-186720D01*
X-2995539Y-197460D01*
X-2983840Y-212880D01*
X-2971480Y-227800D01*
X-2958500Y-242220D01*
X-2944920Y-256060D01*
X-2930779Y-269320D01*
X-2916080Y-281980D01*
X-2900880Y-294020D01*
X-2885200Y-305420D01*
X-2869040Y-316140D01*
X-2852440Y-326180D01*
X-2835440Y-335500D01*
X-2818080Y-344120D01*
X-2800360Y-352000D01*
X-2782320Y-359120D01*
X-2764000Y-365480D01*
X-2745440Y-371079D01*
X-2726660Y-375900D01*
X-2707679Y-379920D01*
X-2688560Y-383140D01*
X-2669320Y-385560D01*
X-2650000Y-387180D01*
X-2630640Y-387980D01*
X-2611240Y-387960D01*
X-2591860Y-387140D01*
X-2572540Y-385520D01*
X-2553320Y-383060D01*
X-2534200Y-379820D01*
X-2515220Y-375780D01*
X-2496440Y-370959D01*
X-2477880Y-365340D01*
X-2459580Y-358960D01*
X-2441560Y-351800D01*
X-2423840Y-343900D01*
X-2406480Y-335280D01*
X-2389500Y-325920D01*
X-2372920Y-315880D01*
X-2356760Y-305140D01*
X-2341080Y-293720D01*
X-2325900Y-281680D01*
X-2311220Y-269000D01*
X-2297100Y-255720D01*
X-2283540Y-241860D01*
X-2270560Y-227440D01*
X-2258220Y-212480D01*
X-2246500Y-197040D01*
X-2235440Y-181100D01*
X-2225060Y-164740D01*
X-2215380Y-147940D01*
X-2206400Y-130740D01*
X-2198160Y-113200D01*
X-2190640Y-95320D01*
X-2183900Y-77140D01*
X-2177920Y-58700D01*
X-2172720Y-40020D01*
X-2168300Y-21140D01*
X-2164680Y-2080D01*
X-2161840Y17100D01*
X-2159840Y36380D01*
X-2158620Y55740D01*
X-2158220Y74920D01*
X-2158220Y930260D01*
X-2157920Y931820D01*
X-2157040Y933120D01*
X-2155720Y933980D01*
X-2154160Y934260D01*
X-2152620Y933920D01*
X-2151340Y933020D01*
X-2150500Y931700D01*
X-2150020Y930460D01*
X-2144380Y917840D01*
X-2138040Y905560D01*
X-2131000Y893660D01*
X-2123320Y882159D01*
X-2115020Y871120D01*
X-2106100Y860560D01*
X-2096600Y850520D01*
X-2086560Y841020D01*
X-2076000Y832099D01*
X-2064960Y823800D01*
X-2053460Y816120D01*
X-2041560Y809080D01*
X-2029280Y802740D01*
X-2016660Y797099D01*
X-2003740Y792159D01*
X-1990580Y787980D01*
X-1977200Y784520D01*
X-1963640Y781820D01*
X-1949960Y779900D01*
X-1936180Y778720D01*
X-1922360Y778340D01*
X-1908540Y778720D01*
X-1894760Y779900D01*
X-1881080Y781820D01*
X-1867520Y784520D01*
X-1854139Y787980D01*
X-1840980Y792159D01*
X-1828060Y797099D01*
X-1815440Y802740D01*
X-1803160Y809080D01*
X-1791260Y816120D01*
X-1779760Y823800D01*
X-1768720Y832099D01*
X-1758160Y841020D01*
X-1748120Y850520D01*
X-1738620Y860560D01*
X-1729700Y871120D01*
X-1721399Y882159D01*
X-1713720Y893660D01*
X-1706680Y905560D01*
X-1700340Y917840D01*
X-1694700Y930460D01*
X-1689760Y943379D01*
X-1685580Y956540D01*
X-1682120Y969920D01*
X-1679420Y983480D01*
X-1677500Y997159D01*
X-1676320Y1010939D01*
X-1675940Y1024760D01*
X-1676320Y1038580D01*
X-1677500Y1052360D01*
X-1679420Y1066040D01*
X-1682120Y1079600D01*
X-1685580Y1092980D01*
X-1689760Y1106140D01*
X-1694700Y1119060D01*
X-1700340Y1131680D01*
X-1706680Y1143960D01*
X-1713720Y1155860D01*
X-1721399Y1167360D01*
X-1729700Y1178400D01*
X-1738620Y1188960D01*
X-1748120Y1199000D01*
X-1758160Y1208500D01*
X-1768720Y1217420D01*
X-1779760Y1225720D01*
X-1791260Y1233400D01*
X-1803160Y1240440D01*
X-1815440Y1246780D01*
X-1828060Y1252420D01*
X-1840980Y1257360D01*
X-1854139Y1261540D01*
X-1867520Y1265000D01*
X-1881080Y1267700D01*
X-1894760Y1269620D01*
X-1908540Y1270800D01*
X-1922360Y1271180D01*
X-1936180Y1270800D01*
X-1949960Y1269620D01*
X-1963640Y1267700D01*
X-1977200Y1265000D01*
X-1990580Y1261540D01*
X-2003740Y1257360D01*
X-2016660Y1252420D01*
X-2029280Y1246780D01*
X-2041560Y1240440D01*
X-2053460Y1233400D01*
X-2064960Y1225720D01*
X-2076000Y1217420D01*
X-2086560Y1208500D01*
X-2096600Y1199000D01*
X-2106100Y1188960D01*
X-2115020Y1178400D01*
X-2123320Y1167360D01*
X-2131000Y1155860D01*
X-2138040Y1143960D01*
X-2144380Y1131680D01*
X-2150020Y1119060D01*
X-2150500Y1117820D01*
X-2151340Y1116500D01*
X-2152620Y1115600D01*
X-2154160Y1115260D01*
X-2155720Y1115540D01*
X-2157040Y1116400D01*
X-2157920Y1117700D01*
X-2158220Y1119260D01*
X-2158220Y1556740D01*
X-2157920Y1558280D01*
X-2157060Y1559560D01*
X-2155760Y1560440D01*
X-2154220Y1560740D01*
X-1139320Y1560740D01*
X-1137800Y1560440D01*
X-1136500Y1559560D01*
X-1135620Y1558280D01*
X-1135320Y1556740D01*
X-1135320Y325300D01*
X-1135620Y323760D01*
X-1136500Y322480D01*
X-1137800Y321599D01*
X-1139320Y321300D01*
X-1410020Y321300D01*
X-1424480Y320880D01*
X-1438500Y319660D01*
X-1452440Y317620D01*
X-1466220Y314820D01*
X-1479820Y311220D01*
X-1493200Y306860D01*
X-1506320Y301720D01*
X-1519100Y295860D01*
X-1531540Y289280D01*
X-1543580Y282000D01*
X-1555200Y274040D01*
X-1566320Y265420D01*
X-1576960Y256200D01*
X-1587040Y246380D01*
X-1596540Y236000D01*
X-1605420Y225080D01*
X-1613680Y213700D01*
X-1621279Y201840D01*
X-1628180Y189579D01*
X-1634379Y176940D01*
X-1639840Y163960D01*
X-1644540Y150700D01*
X-1648480Y137200D01*
X-1651660Y123480D01*
X-1654040Y109620D01*
X-1655620Y95640D01*
X-1656399Y82260D01*
X-1656399Y67500D01*
X-1655560Y53460D01*
X-1653940Y39480D01*
X-1651519Y25620D01*
X-1648320Y11920D01*
X-1644340Y-1580D01*
X-1639580Y-14840D01*
X-1634100Y-27780D01*
X-1627860Y-40400D01*
X-1620940Y-52660D01*
X-1613300Y-64480D01*
X-1605020Y-75860D01*
X-1596100Y-86740D01*
X-1586560Y-97100D01*
X-1576459Y-106880D01*
X-1565820Y-116100D01*
X-1554660Y-124660D01*
X-1543020Y-132600D01*
X-1530960Y-139840D01*
X-1518500Y-146400D01*
X-1505700Y-152220D01*
X-1492580Y-157320D01*
X-1479180Y-161640D01*
X-1465580Y-165200D01*
X-1451780Y-167979D01*
X-1437840Y-169960D01*
X-1423820Y-171160D01*
X-1410420Y-171540D01*
X-1379000Y-171540D01*
X-1377460Y-171840D01*
X-1376180Y-172719D01*
X-1375300Y-174000D01*
X-1375000Y-175539D01*
X-1375000Y-954599D01*
X-1374720Y-955280D01*
X-1360280Y-969720D01*
X-1359600Y-970000D01*
X-1139320Y-970000D01*
X-1137800Y-970300D01*
X-1136500Y-971180D01*
X-1135620Y-972460D01*
X-1135320Y-974000D01*
X-1135320Y-1406980D01*
X-1135620Y-1408520D01*
X-1136500Y-1409820D01*
X-1137800Y-1410680D01*
X-1139320Y-1410980D01*
G37*

%LPC*%
G36*
X-2575000Y-1281200D02*
G01*
X-2569620Y-1280840D01*
X-2564340Y-1279780D01*
X-2559240Y-1278060D01*
X-2554400Y-1275680D01*
X-2549920Y-1272680D01*
X-2545880Y-1269120D01*
X-2542320Y-1265080D01*
X-2539320Y-1260600D01*
X-2536940Y-1255760D01*
X-2535220Y-1250660D01*
X-2534160Y-1245380D01*
X-2533800Y-1240000D01*
X-2534160Y-1234620D01*
X-2535220Y-1229340D01*
X-2536940Y-1224240D01*
X-2539320Y-1219400D01*
X-2542320Y-1214920D01*
X-2545880Y-1210880D01*
X-2549920Y-1207320D01*
X-2554400Y-1204320D01*
X-2559240Y-1201940D01*
X-2564340Y-1200220D01*
X-2569620Y-1199160D01*
X-2575000Y-1198800D01*
X-2580380Y-1199160D01*
X-2585659Y-1200220D01*
X-2590760Y-1201940D01*
X-2595600Y-1204320D01*
X-2600080Y-1207320D01*
X-2604120Y-1210880D01*
X-2607679Y-1214920D01*
X-2610680Y-1219400D01*
X-2613060Y-1224240D01*
X-2614780Y-1229340D01*
X-2615840Y-1234620D01*
X-2616200Y-1240000D01*
X-2615840Y-1245380D01*
X-2614780Y-1250660D01*
X-2613060Y-1255760D01*
X-2610680Y-1260600D01*
X-2607679Y-1265080D01*
X-2604120Y-1269120D01*
X-2600080Y-1272680D01*
X-2595600Y-1275680D01*
X-2590760Y-1278060D01*
X-2585659Y-1279780D01*
X-2580380Y-1280840D01*
G37*
G36*
X-2805779Y-1281200D02*
G01*
X-2744220Y-1281200D01*
X-2741740Y-1280920D01*
X-2739580Y-1280160D01*
X-2737660Y-1278960D01*
X-2736040Y-1277340D01*
X-2734840Y-1275420D01*
X-2734080Y-1273260D01*
X-2733800Y-1270780D01*
X-2733800Y-1221960D01*
X-2733500Y-1220420D01*
X-2732620Y-1219120D01*
X-2124880Y-611380D01*
X-2123580Y-610500D01*
X-2122040Y-610200D01*
X-2106360Y-610200D01*
X-2104820Y-610500D01*
X-2103520Y-611380D01*
X-2102660Y-612660D01*
X-2102360Y-614200D01*
X-2102660Y-615740D01*
X-2103520Y-617020D01*
X-2686940Y-1200480D01*
X-2687919Y-1200980D01*
X-2690760Y-1201940D01*
X-2695600Y-1204320D01*
X-2700080Y-1207320D01*
X-2704120Y-1210880D01*
X-2707679Y-1214920D01*
X-2710680Y-1219400D01*
X-2713060Y-1224240D01*
X-2714780Y-1229340D01*
X-2715840Y-1234620D01*
X-2716200Y-1240000D01*
X-2715840Y-1245380D01*
X-2714780Y-1250660D01*
X-2713060Y-1255760D01*
X-2710680Y-1260600D01*
X-2707679Y-1265080D01*
X-2704120Y-1269120D01*
X-2700080Y-1272680D01*
X-2695600Y-1275680D01*
X-2690760Y-1278060D01*
X-2685659Y-1279780D01*
X-2680380Y-1280840D01*
X-2675000Y-1281200D01*
X-2669620Y-1280840D01*
X-2664340Y-1279780D01*
X-2659240Y-1278060D01*
X-2654400Y-1275680D01*
X-2649920Y-1272680D01*
X-2645880Y-1269120D01*
X-2642320Y-1265080D01*
X-2639320Y-1260600D01*
X-2636940Y-1255760D01*
X-2635220Y-1250660D01*
X-2634160Y-1245380D01*
X-2633800Y-1240000D01*
X-2634160Y-1234620D01*
X-2635220Y-1229340D01*
X-2636940Y-1224240D01*
X-2639320Y-1219400D01*
X-2642320Y-1214920D01*
X-2645880Y-1210880D01*
X-2647200Y-1209720D01*
X-2648180Y-1208420D01*
X-2648560Y-1206840D01*
X-2648279Y-1205240D01*
X-2647380Y-1203880D01*
X-2084880Y-641380D01*
X-2083580Y-640500D01*
X-2082040Y-640200D01*
X-1757720Y-640200D01*
X-1756180Y-640500D01*
X-1754880Y-641380D01*
X-1754259Y-642000D01*
X-1751100Y-644220D01*
X-1747580Y-645840D01*
X-1743860Y-646840D01*
X-1740000Y-647180D01*
X-1736140Y-646840D01*
X-1732420Y-645840D01*
X-1728899Y-644220D01*
X-1725740Y-642000D01*
X-1723000Y-639260D01*
X-1720780Y-636100D01*
X-1719160Y-632580D01*
X-1718160Y-628860D01*
X-1717820Y-625000D01*
X-1718160Y-621140D01*
X-1719160Y-617420D01*
X-1720780Y-613900D01*
X-1721920Y-612300D01*
X-1722560Y-610800D01*
X-1722560Y-609200D01*
X-1721920Y-607700D01*
X-1720780Y-606100D01*
X-1719160Y-602580D01*
X-1718160Y-598860D01*
X-1717820Y-595000D01*
X-1718160Y-591140D01*
X-1719160Y-587420D01*
X-1720780Y-583900D01*
X-1723000Y-580740D01*
X-1725740Y-578000D01*
X-1728899Y-575780D01*
X-1732420Y-574160D01*
X-1736140Y-573160D01*
X-1740000Y-572820D01*
X-1743860Y-573160D01*
X-1747580Y-574160D01*
X-1751100Y-575780D01*
X-1754259Y-578000D01*
X-1754880Y-578620D01*
X-1756180Y-579500D01*
X-1757720Y-579800D01*
X-2129800Y-579800D01*
X-2132960Y-580120D01*
X-2135800Y-580980D01*
X-2138440Y-582380D01*
X-2140880Y-584400D01*
X-2754120Y-1197620D01*
X-2755419Y-1198500D01*
X-2756960Y-1198800D01*
X-2805779Y-1198800D01*
X-2808260Y-1199080D01*
X-2810419Y-1199840D01*
X-2812340Y-1201040D01*
X-2813960Y-1202660D01*
X-2815160Y-1204580D01*
X-2815920Y-1206740D01*
X-2816200Y-1209220D01*
X-2816200Y-1270780D01*
X-2815920Y-1273260D01*
X-2815160Y-1275420D01*
X-2813960Y-1277340D01*
X-2812340Y-1278960D01*
X-2810419Y-1280160D01*
X-2808260Y-1280920D01*
G37*
G36*
X-1920780Y-1276200D02*
G01*
X-1908000Y-1276200D01*
X-1908000Y-1253000D01*
X-1931200Y-1253000D01*
X-1931200Y-1265780D01*
X-1930920Y-1268260D01*
X-1930160Y-1270420D01*
X-1928959Y-1272340D01*
X-1927340Y-1273960D01*
X-1925420Y-1275160D01*
X-1923260Y-1275920D01*
G37*
G36*
X-1872000Y-1276200D02*
G01*
X-1859220Y-1276200D01*
X-1856740Y-1275920D01*
X-1854580Y-1275160D01*
X-1852660Y-1273960D01*
X-1851040Y-1272340D01*
X-1849840Y-1270420D01*
X-1849079Y-1268260D01*
X-1848800Y-1265780D01*
X-1848800Y-1253000D01*
X-1872000Y-1253000D01*
G37*
G36*
X-1990000Y-1276200D02*
G01*
X-1984620Y-1275840D01*
X-1979340Y-1274780D01*
X-1974240Y-1273060D01*
X-1969400Y-1270680D01*
X-1964920Y-1267680D01*
X-1960880Y-1264120D01*
X-1957320Y-1260080D01*
X-1954319Y-1255600D01*
X-1951940Y-1250760D01*
X-1950220Y-1245660D01*
X-1949160Y-1240380D01*
X-1948800Y-1235000D01*
X-1949160Y-1229620D01*
X-1950220Y-1224340D01*
X-1951940Y-1219240D01*
X-1954319Y-1214400D01*
X-1957320Y-1209920D01*
X-1960880Y-1205880D01*
X-1964920Y-1202320D01*
X-1969400Y-1199320D01*
X-1974240Y-1196940D01*
X-1979340Y-1195220D01*
X-1984620Y-1194160D01*
X-1990000Y-1193800D01*
X-1995380Y-1194160D01*
X-2000660Y-1195220D01*
X-2005760Y-1196940D01*
X-2010600Y-1199320D01*
X-2015080Y-1202320D01*
X-2019120Y-1205880D01*
X-2022680Y-1209920D01*
X-2025680Y-1214400D01*
X-2028060Y-1219240D01*
X-2029780Y-1224340D01*
X-2030840Y-1229620D01*
X-2031200Y-1235000D01*
X-2030840Y-1240380D01*
X-2029780Y-1245660D01*
X-2028060Y-1250760D01*
X-2025680Y-1255600D01*
X-2022680Y-1260080D01*
X-2019120Y-1264120D01*
X-2015080Y-1267680D01*
X-2010600Y-1270680D01*
X-2005760Y-1273060D01*
X-2000660Y-1274780D01*
X-1995380Y-1275840D01*
G37*
G36*
X-2335000Y-1276200D02*
G01*
X-2329620Y-1275840D01*
X-2324340Y-1274780D01*
X-2319240Y-1273060D01*
X-2314400Y-1270680D01*
X-2309920Y-1267680D01*
X-2305880Y-1264120D01*
X-2302320Y-1260080D01*
X-2299320Y-1255600D01*
X-2296940Y-1250760D01*
X-2295220Y-1245660D01*
X-2294160Y-1240380D01*
X-2293800Y-1235000D01*
X-2294160Y-1229620D01*
X-2295220Y-1224340D01*
X-2296940Y-1219240D01*
X-2299320Y-1214400D01*
X-2302320Y-1209920D01*
X-2305880Y-1205880D01*
X-2309920Y-1202320D01*
X-2314400Y-1199320D01*
X-2319240Y-1196940D01*
X-2324340Y-1195220D01*
X-2329620Y-1194160D01*
X-2335000Y-1193800D01*
X-2340380Y-1194160D01*
X-2345660Y-1195220D01*
X-2350760Y-1196940D01*
X-2355600Y-1199320D01*
X-2360080Y-1202320D01*
X-2364120Y-1205880D01*
X-2367680Y-1209920D01*
X-2370680Y-1214400D01*
X-2373060Y-1219240D01*
X-2374780Y-1224340D01*
X-2375840Y-1229620D01*
X-2376200Y-1235000D01*
X-2375840Y-1240380D01*
X-2374780Y-1245660D01*
X-2373060Y-1250760D01*
X-2370680Y-1255600D01*
X-2367680Y-1260080D01*
X-2364120Y-1264120D01*
X-2360080Y-1267680D01*
X-2355600Y-1270680D01*
X-2350760Y-1273060D01*
X-2345660Y-1274780D01*
X-2340380Y-1275840D01*
G37*
G36*
X-2235000Y-1276200D02*
G01*
X-2229620Y-1275840D01*
X-2224340Y-1274780D01*
X-2219240Y-1273060D01*
X-2214400Y-1270680D01*
X-2209920Y-1267680D01*
X-2205880Y-1264120D01*
X-2202320Y-1260080D01*
X-2199320Y-1255600D01*
X-2196940Y-1250760D01*
X-2195220Y-1245660D01*
X-2194160Y-1240380D01*
X-2193800Y-1235000D01*
X-2194160Y-1229620D01*
X-2195220Y-1224340D01*
X-2196940Y-1219240D01*
X-2199320Y-1214400D01*
X-2202320Y-1209920D01*
X-2205880Y-1205880D01*
X-2209920Y-1202320D01*
X-2214400Y-1199320D01*
X-2219240Y-1196940D01*
X-2224340Y-1195220D01*
X-2229620Y-1194160D01*
X-2235000Y-1193800D01*
X-2240380Y-1194160D01*
X-2245660Y-1195220D01*
X-2250760Y-1196940D01*
X-2255600Y-1199320D01*
X-2260080Y-1202320D01*
X-2264120Y-1205880D01*
X-2267680Y-1209920D01*
X-2270680Y-1214400D01*
X-2273060Y-1219240D01*
X-2274780Y-1224340D01*
X-2275840Y-1229620D01*
X-2276200Y-1235000D01*
X-2275840Y-1240380D01*
X-2274780Y-1245660D01*
X-2273060Y-1250760D01*
X-2270680Y-1255600D01*
X-2267680Y-1260080D01*
X-2264120Y-1264120D01*
X-2260080Y-1267680D01*
X-2255600Y-1270680D01*
X-2250760Y-1273060D01*
X-2245660Y-1274780D01*
X-2240380Y-1275840D01*
G37*
G36*
X-2135000Y-1276200D02*
G01*
X-2129620Y-1275840D01*
X-2124340Y-1274780D01*
X-2119240Y-1273060D01*
X-2114400Y-1270680D01*
X-2109920Y-1267680D01*
X-2105880Y-1264120D01*
X-2102320Y-1260080D01*
X-2099320Y-1255600D01*
X-2096940Y-1250760D01*
X-2095220Y-1245660D01*
X-2094160Y-1240380D01*
X-2093800Y-1235000D01*
X-2094160Y-1229620D01*
X-2095220Y-1224340D01*
X-2096940Y-1219240D01*
X-2099320Y-1214400D01*
X-2102320Y-1209920D01*
X-2105880Y-1205880D01*
X-2109920Y-1202320D01*
X-2114400Y-1199320D01*
X-2119240Y-1196940D01*
X-2124340Y-1195220D01*
X-2129620Y-1194160D01*
X-2135000Y-1193800D01*
X-2140380Y-1194160D01*
X-2145660Y-1195220D01*
X-2150760Y-1196940D01*
X-2155600Y-1199320D01*
X-2160080Y-1202320D01*
X-2164120Y-1205880D01*
X-2167680Y-1209920D01*
X-2170680Y-1214400D01*
X-2173060Y-1219240D01*
X-2174780Y-1224340D01*
X-2175840Y-1229620D01*
X-2176200Y-1235000D01*
X-2175840Y-1240380D01*
X-2174780Y-1245660D01*
X-2173060Y-1250760D01*
X-2170680Y-1255600D01*
X-2167680Y-1260080D01*
X-2164120Y-1264120D01*
X-2160080Y-1267680D01*
X-2155600Y-1270680D01*
X-2150760Y-1273060D01*
X-2145660Y-1274780D01*
X-2140380Y-1275840D01*
G37*
G36*
X-2465780Y-1276200D02*
G01*
X-2404220Y-1276200D01*
X-2401740Y-1275920D01*
X-2399580Y-1275160D01*
X-2397660Y-1273960D01*
X-2396040Y-1272340D01*
X-2394840Y-1270420D01*
X-2394080Y-1268260D01*
X-2393800Y-1265780D01*
X-2393800Y-1204220D01*
X-2394080Y-1201740D01*
X-2394840Y-1199580D01*
X-2396040Y-1197660D01*
X-2397660Y-1196040D01*
X-2399580Y-1194840D01*
X-2401740Y-1194080D01*
X-2404220Y-1193800D01*
X-2465780Y-1193800D01*
X-2468260Y-1194080D01*
X-2470420Y-1194840D01*
X-2472340Y-1196040D01*
X-2473960Y-1197660D01*
X-2475160Y-1199580D01*
X-2475920Y-1201740D01*
X-2476200Y-1204220D01*
X-2476200Y-1265780D01*
X-2475920Y-1268260D01*
X-2475160Y-1270420D01*
X-2473960Y-1272340D01*
X-2472340Y-1273960D01*
X-2470420Y-1275160D01*
X-2468260Y-1275920D01*
G37*
G36*
X-1390000Y-1271200D02*
G01*
X-1384620Y-1270840D01*
X-1379340Y-1269780D01*
X-1374240Y-1268060D01*
X-1369400Y-1265680D01*
X-1364920Y-1262680D01*
X-1360880Y-1259120D01*
X-1357320Y-1255080D01*
X-1354319Y-1250600D01*
X-1351940Y-1245760D01*
X-1350220Y-1240660D01*
X-1349160Y-1235380D01*
X-1348800Y-1230000D01*
X-1349160Y-1224620D01*
X-1350220Y-1219340D01*
X-1351940Y-1214240D01*
X-1354319Y-1209400D01*
X-1357320Y-1204920D01*
X-1360880Y-1200880D01*
X-1364920Y-1197320D01*
X-1369400Y-1194320D01*
X-1374240Y-1191940D01*
X-1379340Y-1190220D01*
X-1384620Y-1189160D01*
X-1390000Y-1188800D01*
X-1395380Y-1189160D01*
X-1400660Y-1190220D01*
X-1405760Y-1191940D01*
X-1410600Y-1194320D01*
X-1415080Y-1197320D01*
X-1419120Y-1200880D01*
X-1422680Y-1204920D01*
X-1425680Y-1209400D01*
X-1428060Y-1214240D01*
X-1429780Y-1219340D01*
X-1430840Y-1224620D01*
X-1431200Y-1230000D01*
X-1430840Y-1235380D01*
X-1429780Y-1240660D01*
X-1428060Y-1245760D01*
X-1425680Y-1250600D01*
X-1422680Y-1255080D01*
X-1419120Y-1259120D01*
X-1415080Y-1262680D01*
X-1410600Y-1265680D01*
X-1405760Y-1268060D01*
X-1400660Y-1269780D01*
X-1395380Y-1270840D01*
G37*
G36*
X-1290000Y-1271200D02*
G01*
X-1284620Y-1270840D01*
X-1279340Y-1269780D01*
X-1274240Y-1268060D01*
X-1269400Y-1265680D01*
X-1264920Y-1262680D01*
X-1260880Y-1259120D01*
X-1257320Y-1255080D01*
X-1254320Y-1250600D01*
X-1251940Y-1245760D01*
X-1250220Y-1240660D01*
X-1249280Y-1236000D01*
X-1248600Y-1234440D01*
X-1247320Y-1233300D01*
X-1245680Y-1232800D01*
X-1243980Y-1233040D01*
X-1242540Y-1233960D01*
X-1235880Y-1240600D01*
X-1232200Y-1243580D01*
X-1231460Y-1244800D01*
X-1231200Y-1246220D01*
X-1231200Y-1260780D01*
X-1230920Y-1263260D01*
X-1230160Y-1265420D01*
X-1228960Y-1267340D01*
X-1227340Y-1268960D01*
X-1225420Y-1270160D01*
X-1223260Y-1270920D01*
X-1220780Y-1271200D01*
X-1159220Y-1271200D01*
X-1156740Y-1270920D01*
X-1154580Y-1270160D01*
X-1152660Y-1268960D01*
X-1151040Y-1267340D01*
X-1149840Y-1265420D01*
X-1149080Y-1263260D01*
X-1148800Y-1260780D01*
X-1148800Y-1199220D01*
X-1149080Y-1196740D01*
X-1149840Y-1194580D01*
X-1151040Y-1192660D01*
X-1152660Y-1191040D01*
X-1154580Y-1189840D01*
X-1156740Y-1189080D01*
X-1159220Y-1188800D01*
X-1220780Y-1188800D01*
X-1223260Y-1189080D01*
X-1225420Y-1189840D01*
X-1227340Y-1191040D01*
X-1228960Y-1192660D01*
X-1230160Y-1194580D01*
X-1231160Y-1196440D01*
X-1232460Y-1197380D01*
X-1234020Y-1197740D01*
X-1235600Y-1197460D01*
X-1236940Y-1196560D01*
X-1404120Y-1029400D01*
X-1406560Y-1027380D01*
X-1409199Y-1025980D01*
X-1412040Y-1025120D01*
X-1415200Y-1024800D01*
X-1457040Y-1024800D01*
X-1458580Y-1024500D01*
X-1459880Y-1023620D01*
X-1473620Y-1009880D01*
X-1474500Y-1008580D01*
X-1474800Y-1007039D01*
X-1474800Y-534540D01*
X-1474420Y-532820D01*
X-1472240Y-528260D01*
X-1470780Y-526100D01*
X-1469160Y-522580D01*
X-1468160Y-518860D01*
X-1467820Y-515000D01*
X-1468160Y-511140D01*
X-1469160Y-507420D01*
X-1470780Y-503900D01*
X-1473000Y-500740D01*
X-1475740Y-498000D01*
X-1478899Y-495780D01*
X-1482420Y-494159D01*
X-1486140Y-493160D01*
X-1490000Y-492819D01*
X-1493860Y-493160D01*
X-1497580Y-494159D01*
X-1501100Y-495780D01*
X-1504259Y-498000D01*
X-1507000Y-500740D01*
X-1509220Y-503900D01*
X-1510840Y-507420D01*
X-1511840Y-511140D01*
X-1512180Y-515000D01*
X-1511840Y-518860D01*
X-1510840Y-522580D01*
X-1509220Y-526100D01*
X-1507760Y-528260D01*
X-1505580Y-532820D01*
X-1505200Y-534540D01*
X-1505200Y-1014800D01*
X-1504880Y-1017960D01*
X-1504019Y-1020800D01*
X-1502620Y-1023439D01*
X-1500600Y-1025879D01*
X-1475880Y-1050600D01*
X-1473440Y-1052620D01*
X-1470800Y-1054020D01*
X-1467960Y-1054880D01*
X-1464800Y-1055200D01*
X-1422960Y-1055200D01*
X-1421420Y-1055500D01*
X-1420120Y-1056380D01*
X-1293959Y-1182540D01*
X-1293040Y-1183980D01*
X-1292800Y-1185680D01*
X-1293300Y-1187320D01*
X-1294440Y-1188600D01*
X-1296000Y-1189280D01*
X-1300660Y-1190220D01*
X-1305760Y-1191940D01*
X-1310600Y-1194320D01*
X-1315080Y-1197320D01*
X-1319120Y-1200880D01*
X-1322680Y-1204920D01*
X-1325680Y-1209400D01*
X-1328060Y-1214240D01*
X-1329780Y-1219340D01*
X-1330840Y-1224620D01*
X-1331200Y-1230000D01*
X-1330840Y-1235380D01*
X-1329780Y-1240660D01*
X-1328060Y-1245760D01*
X-1325680Y-1250600D01*
X-1322680Y-1255080D01*
X-1319120Y-1259120D01*
X-1315080Y-1262680D01*
X-1310600Y-1265680D01*
X-1305760Y-1268060D01*
X-1300660Y-1269780D01*
X-1295380Y-1270840D01*
G37*
G36*
X-1508000Y-1266960D02*
G01*
X-1508000Y-1248000D01*
X-1526960Y-1248000D01*
X-1525680Y-1250600D01*
X-1522680Y-1255080D01*
X-1519120Y-1259120D01*
X-1515080Y-1262680D01*
X-1510600Y-1265680D01*
G37*
G36*
X-1472000Y-1266960D02*
G01*
X-1469400Y-1265680D01*
X-1464920Y-1262680D01*
X-1460880Y-1259120D01*
X-1457320Y-1255080D01*
X-1454319Y-1250600D01*
X-1453040Y-1248000D01*
X-1472000Y-1248000D01*
G37*
G36*
X-1931200Y-1217000D02*
G01*
X-1908000Y-1217000D01*
X-1908000Y-1193800D01*
X-1920780Y-1193800D01*
X-1923260Y-1194080D01*
X-1925420Y-1194840D01*
X-1927340Y-1196040D01*
X-1928959Y-1197660D01*
X-1930160Y-1199580D01*
X-1930920Y-1201740D01*
X-1931200Y-1204220D01*
G37*
G36*
X-1872000Y-1217000D02*
G01*
X-1848800Y-1217000D01*
X-1848800Y-1204220D01*
X-1849079Y-1201740D01*
X-1849840Y-1199580D01*
X-1851040Y-1197660D01*
X-1852660Y-1196040D01*
X-1854580Y-1194840D01*
X-1856740Y-1194080D01*
X-1859220Y-1193800D01*
X-1872000Y-1193800D01*
G37*
G36*
X-1526960Y-1212000D02*
G01*
X-1508000Y-1212000D01*
X-1508000Y-1193040D01*
X-1510600Y-1194320D01*
X-1515080Y-1197320D01*
X-1519120Y-1200880D01*
X-1522680Y-1204920D01*
X-1525680Y-1209400D01*
G37*
G36*
X-1472000Y-1212000D02*
G01*
X-1453040Y-1212000D01*
X-1454319Y-1209400D01*
X-1457320Y-1204920D01*
X-1460880Y-1200880D01*
X-1464920Y-1197320D01*
X-1469400Y-1194320D01*
X-1472000Y-1193040D01*
G37*
G36*
X-3320000Y-1121420D02*
G01*
X-3306180Y-1121040D01*
X-3292400Y-1119860D01*
X-3278720Y-1117940D01*
X-3265160Y-1115240D01*
X-3251780Y-1111780D01*
X-3238620Y-1107600D01*
X-3225700Y-1102660D01*
X-3213080Y-1097020D01*
X-3200800Y-1090680D01*
X-3188900Y-1083640D01*
X-3177400Y-1075960D01*
X-3166360Y-1067660D01*
X-3155800Y-1058740D01*
X-3145760Y-1049240D01*
X-3136259Y-1039200D01*
X-3127340Y-1028640D01*
X-3119040Y-1017600D01*
X-3111360Y-1006100D01*
X-3104320Y-994200D01*
X-3097980Y-981919D01*
X-3092340Y-969300D01*
X-3087400Y-956380D01*
X-3083220Y-943220D01*
X-3079760Y-929840D01*
X-3077060Y-916280D01*
X-3075140Y-902600D01*
X-3073960Y-888820D01*
X-3073580Y-875000D01*
X-3073960Y-861180D01*
X-3075140Y-847400D01*
X-3077060Y-833720D01*
X-3079760Y-820160D01*
X-3083220Y-806780D01*
X-3087400Y-793620D01*
X-3092340Y-780699D01*
X-3097980Y-768080D01*
X-3104320Y-755800D01*
X-3111360Y-743900D01*
X-3119040Y-732400D01*
X-3127340Y-721360D01*
X-3136259Y-710800D01*
X-3145760Y-700759D01*
X-3155800Y-691260D01*
X-3166360Y-682340D01*
X-3177400Y-674040D01*
X-3188900Y-666360D01*
X-3200800Y-659320D01*
X-3213080Y-652980D01*
X-3225700Y-647340D01*
X-3238620Y-642400D01*
X-3251780Y-638220D01*
X-3265160Y-634760D01*
X-3278720Y-632060D01*
X-3292400Y-630140D01*
X-3306180Y-628960D01*
X-3320000Y-628580D01*
X-3333820Y-628960D01*
X-3347600Y-630140D01*
X-3361280Y-632060D01*
X-3374840Y-634760D01*
X-3388220Y-638220D01*
X-3401380Y-642400D01*
X-3414300Y-647340D01*
X-3426920Y-652980D01*
X-3439200Y-659320D01*
X-3451100Y-666360D01*
X-3462600Y-674040D01*
X-3473639Y-682340D01*
X-3484200Y-691260D01*
X-3494240Y-700759D01*
X-3503740Y-710800D01*
X-3512660Y-721360D01*
X-3520960Y-732400D01*
X-3528639Y-743900D01*
X-3535680Y-755800D01*
X-3542020Y-768080D01*
X-3547660Y-780699D01*
X-3552600Y-793620D01*
X-3556780Y-806780D01*
X-3560240Y-820160D01*
X-3562940Y-833720D01*
X-3564860Y-847400D01*
X-3566040Y-861180D01*
X-3566420Y-875000D01*
X-3566040Y-888820D01*
X-3564860Y-902600D01*
X-3562940Y-916280D01*
X-3560240Y-929840D01*
X-3556780Y-943220D01*
X-3552600Y-956380D01*
X-3547660Y-969300D01*
X-3542020Y-981919D01*
X-3535680Y-994200D01*
X-3528639Y-1006100D01*
X-3520960Y-1017600D01*
X-3512660Y-1028640D01*
X-3503740Y-1039200D01*
X-3494240Y-1049240D01*
X-3484200Y-1058740D01*
X-3473639Y-1067660D01*
X-3462600Y-1075960D01*
X-3451100Y-1083640D01*
X-3439200Y-1090680D01*
X-3426920Y-1097020D01*
X-3414300Y-1102660D01*
X-3401380Y-1107600D01*
X-3388220Y-1111780D01*
X-3374840Y-1115240D01*
X-3361280Y-1117940D01*
X-3347600Y-1119860D01*
X-3333820Y-1121040D01*
G37*
G36*
X-1975000Y372920D02*
G01*
X-1969420Y373280D01*
X-1963920Y374360D01*
X-1958620Y376120D01*
X-1953580Y378540D01*
X-1948880Y381599D01*
X-1944620Y385220D01*
X-1940860Y389360D01*
X-1937660Y393940D01*
X-1935080Y398900D01*
X-1933140Y404159D01*
X-1931900Y409620D01*
X-1931360Y415180D01*
X-1931540Y420780D01*
X-1932440Y426300D01*
X-1934019Y431659D01*
X-1936300Y436780D01*
X-1939199Y441560D01*
X-1942680Y445940D01*
X-1946699Y449820D01*
X-1951180Y453160D01*
X-1956060Y455920D01*
X-1961240Y458020D01*
X-1966660Y459440D01*
X-1972200Y460140D01*
X-1977800Y460140D01*
X-1983340Y459440D01*
X-1988760Y458020D01*
X-1993940Y455920D01*
X-1998820Y453160D01*
X-2003300Y449820D01*
X-2007320Y445940D01*
X-2010800Y441560D01*
X-2013700Y436780D01*
X-2015960Y431659D01*
X-2017560Y426300D01*
X-2018460Y420780D01*
X-2018640Y415180D01*
X-2018100Y409620D01*
X-2016860Y404159D01*
X-2014920Y398900D01*
X-2012340Y393940D01*
X-2009139Y389360D01*
X-2005380Y385220D01*
X-2001120Y381599D01*
X-1996420Y378540D01*
X-1991380Y376120D01*
X-1986080Y374360D01*
X-1980580Y373280D01*
G37*
G36*
X-1955760Y574340D02*
G01*
X-1953580Y575400D01*
X-1948880Y578440D01*
X-1944620Y582060D01*
X-1940860Y586220D01*
X-1937660Y590800D01*
X-1935900Y594200D01*
X-1955760Y594200D01*
G37*
G36*
X-1994240Y574340D02*
G01*
X-1994240Y594200D01*
X-2014100Y594200D01*
X-2012340Y590800D01*
X-2009139Y586220D01*
X-2005380Y582060D01*
X-2001120Y578440D01*
X-1996420Y575400D01*
G37*
G36*
X-1955760Y632660D02*
G01*
X-1935860Y632660D01*
X-1936300Y633620D01*
X-1939199Y638400D01*
X-1942680Y642780D01*
X-1946699Y646680D01*
X-1951180Y650020D01*
X-1955760Y652600D01*
G37*
G36*
X-2014139Y632660D02*
G01*
X-1994240Y632660D01*
X-1994240Y652600D01*
X-1998820Y650020D01*
X-2003300Y646680D01*
X-2007320Y642780D01*
X-2010800Y638400D01*
X-2013700Y633620D01*
G37*

%LPD*%
G36*
X-1221000Y-1217500D02*
G01*
X-1225000Y-1225000D01*
X-1225000Y-1235000D01*
X-1221000Y-1242500D01*
G37*
G36*
X-1784920Y-338660D02*
G01*
X-1789000Y-347060D01*
X-1771000Y-347060D01*
X-1775080Y-338660D01*
G37*
G36*
X-1789000Y-192940D02*
G01*
X-1784920Y-201340D01*
X-1775080Y-201340D01*
X-1771000Y-192940D01*
G37*
G36*
X-1958080Y140040D02*
G01*
X-1965040Y133080D01*
X-1961980Y124240D01*
X-1949240Y136980D01*
G37*
G36*
X-1401980Y-1114240D02*
G01*
X-1405080Y-1123020D01*
X-1398020Y-1130080D01*
X-1389240Y-1126980D01*
G37*
G36*
X-1499000Y-522939D02*
G01*
X-1495000Y-531340D01*
X-1485000Y-531340D01*
X-1481000Y-522939D01*
G37*
G36*
X-1473060Y-1191000D02*
G01*
X-1499660Y-1200540D01*
X-1459560Y-1224100D01*
X-1464160Y-1196240D01*
G37*
G36*
X-2008460Y613740D02*
G01*
X-2009120Y582840D01*
X-2001800Y576240D01*
X-1971140Y580180D01*
G37*
D10*
X-1390000Y-1115000D02*
G01*
X-1490000Y-1215000D01*
X-1490000Y-1230000D01*
X-1490000Y-515000D02*
G01*
X-1490000Y-1015000D01*
X-1465000Y-1040000D01*
X-1415000Y-1040000D01*
X-1225000Y-1230000D01*
X-1190000Y-1230000D01*
D11*
X-1950000Y125000D02*
G01*
X-2070000Y245000D01*
X-2070000Y515000D01*
X-1975000Y610000D01*
X-1975000Y613420D01*
X-1780000Y-185000D02*
G01*
X-1780000Y-355000D01*
D10*
X-3030000Y-350000D02*
G01*
X-2810000Y-570000D01*
X-2810000Y-825000D01*
X-1740000Y-595000D02*
G01*
X-2130000Y-595000D01*
X-2775000Y-1240000D01*
X-1740000Y-625000D02*
G01*
X-2090000Y-625000D01*
X-2675000Y-1210000D01*
X-2675000Y-1240000D01*
D12*
G01*
X-1975000Y613420D03*
G01*
X-1975000Y416570D03*
D13*
G01*
X-2435000Y-1235000D03*
D14*
G01*
X-2335000Y-1235000D03*
G01*
X-2235000Y-1235000D03*
G01*
X-2135000Y-1235000D03*
D13*
G01*
X-1190000Y-1230000D03*
D14*
G01*
X-1290000Y-1230000D03*
G01*
X-1390000Y-1230000D03*
G01*
X-1490000Y-1230000D03*
D13*
G01*
X-1890000Y-1235000D03*
D14*
G01*
X-1990000Y-1235000D03*
D13*
G01*
X-2775000Y-1240000D03*
D14*
G01*
X-2675000Y-1240000D03*
G01*
X-2575000Y-1240000D03*
D12*
G01*
X-3269989Y416570D03*
G01*
X-3269989Y613420D03*
D15*
G01*
X-1490000Y-515000D03*
G01*
X-1390000Y-1115000D03*
G01*
X-1740000Y-595000D03*
G01*
X-1740000Y-625000D03*
G01*
X-1950000Y125000D03*
G01*
X-1780000Y-185000D03*
G01*
X-1780000Y-355000D03*
G01*
X-3030000Y-350000D03*
G01*
X-2810000Y-825000D03*
M02*
