G04 Layer: TopPasteMaskLayer*
G04 EasyEDA v6.5.21, 2022-10-26 23:24:46*
G04 7043a08dc792485ca80c43a16287fa54,0a3b9bc433cf4336b4e61a92af7c5883,10*
G04 Gerber Generator version 0.2*
G04 Scale: 100 percent, Rotated: No, Reflected: No *
G04 Dimensions in inches *
G04 leading zeros omitted , absolute positions ,3 integer and 6 decimal *
%FSLAX36Y36*%
%MOIN*%

%AMMACRO1*21,1,$1,$2,0,0,$3*%
%ADD10R,0.0315X0.1008*%
%ADD11R,0.0315X0.0354*%
%ADD12R,0.0354X0.0315*%
%ADD13R,0.0551X0.0591*%
%ADD14R,0.0276X0.0276*%
%ADD15R,0.0315X0.0157*%
%ADD16R,0.0157X0.0315*%
%ADD17R,0.0571X0.0571*%
%ADD18R,0.0873X0.0419*%
%ADD19MACRO1,0.2186X0.2049X-90.0000*%
%ADD20R,0.0709X0.0512*%
%ADD21R,0.0472X0.0453*%
%ADD22R,0.0492X0.0276*%

%LPD*%
G36*
X-1382600Y809020D02*
G01*
X-1386540Y805080D01*
X-1386540Y790500D01*
X-1382600Y786560D01*
X-1370600Y786560D01*
X-1366660Y782620D01*
X-1366660Y767380D01*
X-1370600Y763439D01*
X-1382600Y763439D01*
X-1386540Y759500D01*
X-1386540Y744920D01*
X-1382600Y740980D01*
X-1332000Y740980D01*
X-1328080Y744920D01*
X-1328080Y805080D01*
X-1332000Y809020D01*
G37*
G36*
X-1508000Y809020D02*
G01*
X-1511920Y805080D01*
X-1511920Y744920D01*
X-1508000Y740980D01*
X-1457400Y740980D01*
X-1453460Y744920D01*
X-1453460Y759500D01*
X-1457400Y763439D01*
X-1469400Y763439D01*
X-1473340Y767380D01*
X-1473340Y782620D01*
X-1469400Y786560D01*
X-1457400Y786560D01*
X-1453460Y790500D01*
X-1453460Y805080D01*
X-1457400Y809020D01*
G37*
G36*
X-1860740Y-238580D02*
G01*
X-1862720Y-240560D01*
X-1862720Y-272040D01*
X-1860740Y-274020D01*
X-1829259Y-274020D01*
X-1827280Y-272040D01*
X-1827280Y-240560D01*
X-1829259Y-238580D01*
X-1838220Y-238580D01*
X-1838220Y-253160D01*
X-1851220Y-253160D01*
X-1851220Y-238580D01*
G37*
G36*
X-1860740Y-175980D02*
G01*
X-1862720Y-177960D01*
X-1862720Y-209060D01*
X-1860740Y-211020D01*
X-1851220Y-211020D01*
X-1851220Y-196060D01*
X-1838220Y-196060D01*
X-1838220Y-211020D01*
X-1829259Y-211020D01*
X-1827280Y-209060D01*
X-1827280Y-177960D01*
X-1829259Y-175980D01*
G37*
G36*
X-1580740Y-170980D02*
G01*
X-1582720Y-172960D01*
X-1582720Y-204440D01*
X-1580740Y-206420D01*
X-1571780Y-206420D01*
X-1571780Y-191840D01*
X-1558779Y-191840D01*
X-1558779Y-206420D01*
X-1549259Y-206420D01*
X-1547280Y-204440D01*
X-1547280Y-172960D01*
X-1549259Y-170980D01*
G37*
G36*
X-1580740Y-233980D02*
G01*
X-1582720Y-235940D01*
X-1582720Y-267040D01*
X-1580740Y-269020D01*
X-1549259Y-269020D01*
X-1547280Y-267040D01*
X-1547280Y-235940D01*
X-1549259Y-233980D01*
X-1558779Y-233980D01*
X-1558779Y-248939D01*
X-1571780Y-248939D01*
X-1571780Y-233980D01*
G37*
G36*
X-2145740Y-493579D02*
G01*
X-2147720Y-495560D01*
X-2147720Y-527040D01*
X-2145740Y-529020D01*
X-2114260Y-529020D01*
X-2112280Y-527040D01*
X-2112280Y-495560D01*
X-2114260Y-493579D01*
X-2123220Y-493579D01*
X-2123220Y-508160D01*
X-2136220Y-508160D01*
X-2136220Y-493579D01*
G37*
G36*
X-2145740Y-430980D02*
G01*
X-2147720Y-432960D01*
X-2147720Y-464060D01*
X-2145740Y-466019D01*
X-2136220Y-466019D01*
X-2136220Y-451060D01*
X-2123220Y-451060D01*
X-2123220Y-466019D01*
X-2114260Y-466019D01*
X-2112280Y-464060D01*
X-2112280Y-432960D01*
X-2114260Y-430980D01*
G37*
G36*
X-1720080Y521920D02*
G01*
X-1724019Y518000D01*
X-1724019Y467400D01*
X-1720080Y463459D01*
X-1705500Y463459D01*
X-1701560Y467400D01*
X-1701560Y479400D01*
X-1697620Y483340D01*
X-1682380Y483340D01*
X-1678440Y479400D01*
X-1678440Y467400D01*
X-1674500Y463459D01*
X-1659920Y463459D01*
X-1655980Y467400D01*
X-1655980Y518000D01*
X-1659920Y521920D01*
G37*
G36*
X-1720080Y396540D02*
G01*
X-1724019Y392600D01*
X-1724019Y342000D01*
X-1720080Y338080D01*
X-1659920Y338080D01*
X-1655980Y342000D01*
X-1655980Y392600D01*
X-1659920Y396540D01*
X-1674500Y396540D01*
X-1678440Y392600D01*
X-1678440Y380600D01*
X-1682380Y376659D01*
X-1697620Y376659D01*
X-1701560Y380600D01*
X-1701560Y392600D01*
X-1705500Y396540D01*
G37*
G36*
X-3475740Y-363579D02*
G01*
X-3477720Y-365560D01*
X-3477720Y-397040D01*
X-3475740Y-399020D01*
X-3444260Y-399020D01*
X-3442280Y-397040D01*
X-3442280Y-365560D01*
X-3444260Y-363579D01*
X-3453220Y-363579D01*
X-3453220Y-378160D01*
X-3466220Y-378160D01*
X-3466220Y-363579D01*
G37*
G36*
X-3475740Y-300980D02*
G01*
X-3477720Y-302960D01*
X-3477720Y-334060D01*
X-3475740Y-336019D01*
X-3466220Y-336019D01*
X-3466220Y-321060D01*
X-3453220Y-321060D01*
X-3453220Y-336019D01*
X-3444260Y-336019D01*
X-3442280Y-334060D01*
X-3442280Y-302960D01*
X-3444260Y-300980D01*
G37*
D10*
G01*
X-3155390Y195709D03*
G01*
X-3242010Y195709D03*
G01*
X-3328620Y195709D03*
G01*
X-3454600Y195709D03*
G01*
X-3155390Y-65709D03*
G01*
X-3242010Y-65709D03*
G01*
X-3328620Y-65709D03*
G01*
X-3454600Y-65709D03*
D11*
G01*
X-1472559Y-250000D03*
G01*
X-1417440Y-250000D03*
D12*
G01*
X-1710000Y-252559D03*
G01*
X-1710000Y-197440D03*
G01*
X-1845000Y-32559D03*
G01*
X-1845000Y22559D03*
D11*
G01*
X-2022559Y-345000D03*
G01*
X-1967440Y-345000D03*
G01*
X-2027559Y-610000D03*
G01*
X-1972440Y-610000D03*
G01*
X-1712440Y120000D03*
G01*
X-1767559Y120000D03*
D13*
G01*
X-2809600Y-980000D03*
G01*
X-2510399Y-980000D03*
D14*
G01*
X-1390120Y-455749D03*
G01*
X-1779879Y-455749D03*
G01*
X-1779879Y-924250D03*
G01*
X-1390120Y-924250D03*
D15*
G01*
X-1392089Y-501019D03*
G01*
X-1392089Y-532519D03*
G01*
X-1392089Y-564020D03*
G01*
X-1392089Y-595509D03*
G01*
X-1392089Y-627010D03*
G01*
X-1392089Y-658499D03*
G01*
X-1392089Y-690000D03*
G01*
X-1392089Y-721500D03*
G01*
X-1392089Y-752989D03*
G01*
X-1392089Y-784490D03*
G01*
X-1392089Y-815979D03*
G01*
X-1392089Y-847480D03*
G01*
X-1392089Y-878980D03*
D16*
G01*
X-1427519Y-922280D03*
G01*
X-1459020Y-922280D03*
G01*
X-1490509Y-922280D03*
G01*
X-1522010Y-922280D03*
G01*
X-1553499Y-922280D03*
G01*
X-1585000Y-922280D03*
G01*
X-1616500Y-922280D03*
G01*
X-1647989Y-922280D03*
G01*
X-1679490Y-922280D03*
G01*
X-1710979Y-922280D03*
G01*
X-1742480Y-922280D03*
D15*
G01*
X-1777910Y-878980D03*
G01*
X-1777910Y-847480D03*
G01*
X-1777910Y-815979D03*
G01*
X-1777910Y-784490D03*
G01*
X-1777910Y-752989D03*
G01*
X-1777910Y-721500D03*
G01*
X-1777910Y-690000D03*
G01*
X-1777910Y-658499D03*
G01*
X-1777910Y-627010D03*
G01*
X-1777910Y-595509D03*
G01*
X-1777910Y-564020D03*
G01*
X-1777910Y-532519D03*
G01*
X-1777910Y-501019D03*
D16*
G01*
X-1742480Y-457719D03*
G01*
X-1710979Y-457719D03*
G01*
X-1679490Y-457719D03*
G01*
X-1647989Y-457719D03*
G01*
X-1616500Y-457719D03*
G01*
X-1585000Y-457719D03*
G01*
X-1553499Y-457719D03*
G01*
X-1522010Y-457719D03*
G01*
X-1490509Y-457719D03*
G01*
X-1459020Y-457719D03*
G01*
X-1427519Y-457719D03*
D17*
G01*
X-1585000Y-690000D03*
G01*
X-1585000Y-612240D03*
G01*
X-1662759Y-612240D03*
G01*
X-1662759Y-690000D03*
G01*
X-1662759Y-767759D03*
G01*
X-1585000Y-767759D03*
G01*
X-1507240Y-767759D03*
G01*
X-1507240Y-690000D03*
G01*
X-1507240Y-612240D03*
D18*
G01*
X-1531840Y620549D03*
G01*
X-1531840Y439450D03*
D19*
G01*
X-1268163Y530000D03*
D20*
G01*
X-2010000Y-422600D03*
G01*
X-2010000Y-537399D03*
D12*
G01*
X-1645000Y622440D03*
G01*
X-1645000Y677559D03*
G01*
X-1735000Y622440D03*
G01*
X-1735000Y677559D03*
D21*
G01*
X-3421689Y-205000D03*
G01*
X-3558310Y-205000D03*
D22*
G01*
X-3154369Y-452600D03*
G01*
X-3154369Y-527399D03*
G01*
X-3075630Y-490000D03*
M02*
